<?xml version="1.0" encoding="UTF-8"?>
<svg version="1.1" xmlns="http://www.w3.org/2000/svg" width="512" height="512">
<path d="M0 0 C1.01790619 0.00215515 2.03581238 0.0043103 3.08456421 0.00653076 C17.69363523 0.05620146 32.02575853 0.30709809 46.375 3.3125 C47.34985352 3.51117676 48.32470703 3.70985352 49.32910156 3.91455078 C97.7109774 14.03517194 141.69928269 35.9516877 177.375 70.3125 C178.3640332 71.26068604 178.3640332 71.26068604 179.37304688 72.22802734 C188.86130305 81.37247479 197.6012044 90.66984009 205.375 101.3125 C206.23306152 102.46355017 207.09113451 103.61459177 207.94921875 104.765625 C213.98736829 112.95680614 219.34595521 121.47054105 224.375 130.3125 C224.73948242 130.94430176 225.10396484 131.57610352 225.47949219 132.22705078 C247.08534998 169.97532572 256.85198095 212.74189997 256.6875 255.9375 C256.68534485 256.95540619 256.6831897 257.97331238 256.68096924 259.02206421 C256.63129854 273.63113523 256.38040191 287.96325853 253.375 302.3125 C253.07698486 303.77478027 253.07698486 303.77478027 252.77294922 305.26660156 C242.65232806 353.6484774 220.7358123 397.63678269 186.375 433.3125 C185.74287598 433.97185547 185.11075195 434.63121094 184.45947266 435.31054688 C175.31502521 444.79880305 166.01765991 453.5387044 155.375 461.3125 C154.22394983 462.17056152 153.07290823 463.02863451 151.921875 463.88671875 C143.73224019 469.92427396 135.22961724 475.30707302 126.375 480.3125 C125.66778809 480.7146875 124.96057617 481.116875 124.23193359 481.53125 C98.02919713 496.28361537 69.08869203 505.81885806 39.375 510.3125 C38.25254883 510.48910156 37.13009766 510.66570312 35.97363281 510.84765625 C24.36052257 512.5045586 12.84320055 512.71123513 1.125 512.6875 C-0.39302216 512.68668427 -0.39302216 512.68668427 -1.94171143 512.68585205 C-18.47030572 512.64511956 -34.40413999 511.74174222 -50.625 508.3125 C-51.66688477 508.09287598 -52.70876953 507.87325195 -53.78222656 507.64697266 C-113.01577559 494.7267805 -168.58529487 460.48175556 -204.625 411.3125 C-205.26211914 410.45857666 -205.26211914 410.45857666 -205.91210938 409.58740234 C-212.42768015 400.84658179 -218.26088547 391.80163672 -223.625 382.3125 C-224.0271875 381.60528809 -224.429375 380.89807617 -224.84375 380.16943359 C-237.8691741 357.03404164 -246.61801461 331.86287591 -251.9375 305.875 C-252.08485596 305.15610596 -252.23221191 304.43721191 -252.3840332 303.6965332 C-255.35789088 288.05024391 -255.99800362 272.57681954 -255.9375 256.6875 C-255.93534485 255.66959381 -255.9331897 254.65168762 -255.93096924 253.60293579 C-255.88129854 238.99386477 -255.63040191 224.66174147 -252.625 210.3125 C-252.42632324 209.33764648 -252.22764648 208.36279297 -252.02294922 207.35839844 C-241.90232806 158.9765226 -219.9858123 114.98821731 -185.625 79.3125 C-184.99287598 78.65314453 -184.36075195 77.99378906 -183.70947266 77.31445312 C-174.56502521 67.82619695 -165.26765991 59.0862956 -154.625 51.3125 C-153.47394983 50.45443848 -152.32290823 49.59636549 -151.171875 48.73828125 C-142.98224019 42.70072604 -134.47961724 37.31792698 -125.625 32.3125 C-124.91778809 31.9103125 -124.21057617 31.508125 -123.48193359 31.09375 C-100.34654164 18.0683259 -75.17537591 9.31948539 -49.1875 4 C-48.46860596 3.85264404 -47.74971191 3.70528809 -47.0090332 3.5534668 C-31.36274391 0.57960912 -15.88931954 -0.06050362 0 0 Z " fill="#FFCA07" transform="translate(255.625,-0.3125)"/>
<path d="M0 0 C1.51400391 0.47759766 1.51400391 0.47759766 3.05859375 0.96484375 C22.47442426 7.75695407 35.82038344 21.1183062 44.75 39.375 C52.20194491 56.81205922 52.17841253 75.43857273 45.20263672 93.00830078 C37.08737122 112.36644685 22.68637705 124.86315314 3.48413086 133.0760498 C-7.62778955 137.12314936 -18.88492539 136.58017764 -30.5625 136.53125 C-32.8444841 136.5339501 -35.12646707 136.53783681 -37.40844727 136.54284668 C-42.17247559 136.54871731 -46.93620228 136.54025746 -51.70019531 136.52148438 C-57.77574175 136.49869675 -63.85058112 136.51183292 -69.92610168 136.53577423 C-74.63274363 136.55029813 -79.33922074 136.54559605 -84.04586792 136.53526306 C-86.28474005 136.53261397 -88.52362764 136.53580074 -90.76248169 136.54518127 C-108.70403286 136.60387562 -123.43732687 135.35822801 -137.4375 122.81640625 C-148.71224486 111.21789338 -152.33471623 98.68802459 -152.38500977 82.92529297 C-152.20339452 70.39285931 -148.48088828 61.34553416 -140 52 C-139.21689453 51.07960938 -139.21689453 51.07960938 -138.41796875 50.140625 C-130.3953712 41.31771966 -118.85590677 35.38276939 -106.94921875 34.72265625 C-98.10406491 34.43827769 -90.05458355 34.97270823 -82 39 C-81.896875 38.27167969 -81.79375 37.54335938 -81.6875 36.79296875 C-78.73810008 24.81103157 -66.25877583 14.23486435 -56.15844727 7.9855957 C-51.5690907 5.24413572 -47.05419532 2.75259312 -42 1 C-41.17113281 0.70351562 -40.34226562 0.40703125 -39.48828125 0.1015625 C-27.51982472 -3.53738244 -11.99079729 -3.82344288 0 0 Z " fill="#FFFEFE" transform="translate(262,221)"/>
<path d="M0 0 C9.90131028 6.58810587 16.33802632 18.23131101 18.70703125 29.71875 C19.67065633 42.69407376 15.79071387 54.5214875 8.04296875 64.9609375 C1.90074915 71.51069773 -5.36256971 75.77755598 -14.29296875 76.71875 C-14.37933594 75.65398437 -14.46570313 74.58921875 -14.5546875 73.4921875 C-16.29043644 54.67370343 -22.82084545 39.0112621 -35.29296875 24.71875 C-35.81246094 24.10386719 -36.33195312 23.48898438 -36.8671875 22.85546875 C-41.14532274 18.16783946 -46.2716921 14.98908995 -51.67041016 11.73803711 C-53.24174705 10.77989968 -54.77178761 9.75467225 -56.29296875 8.71875 C-56.29296875 8.05875 -56.29296875 7.39875 -56.29296875 6.71875 C-40.37756669 -8.6318048 -19.14495183 -10.69769029 0 0 Z " fill="#FFFEFC" transform="translate(336.29296875,209.28125)"/>
<path d="M0 0 C1.37865234 0.00483398 1.37865234 0.00483398 2.78515625 0.00976562 C3.69652344 -0.00634766 4.60789062 -0.02246094 5.546875 -0.0390625 C6.42730469 -0.03970703 7.30773437 -0.04035156 8.21484375 -0.04101562 C9.42116455 -0.04548706 9.42116455 -0.04548706 10.65185547 -0.05004883 C13.41489905 0.40547998 14.81689341 1.51020076 16.91015625 3.32226562 C16.59765625 6.19726562 16.59765625 6.19726562 15.91015625 9.32226562 C11.64121158 12.16822874 7.93044511 11.6901948 2.91015625 11.69726562 C1.53730469 11.73400391 1.53730469 11.73400391 0.13671875 11.77148438 C-1.18199219 11.77728516 -1.18199219 11.77728516 -2.52734375 11.78320312 C-3.73197266 11.79552979 -3.73197266 11.79552979 -4.9609375 11.80810547 C-7.08984375 11.32226562 -7.08984375 11.32226562 -8.88671875 9.45751953 C-10.08984375 7.32226562 -10.08984375 7.32226562 -9.90234375 4.69726562 C-8.07795605 -0.63555997 -4.91707621 0.03971207 0 0 Z " fill="#FFFCF3" transform="translate(386.08984375,239.677734375)"/>
<path d="M0 0 C4.35881131 1.22980748 6.55282208 3.4217313 9.65625 6.61328125 C10.20152344 7.13083984 10.74679687 7.64839844 11.30859375 8.18164062 C13.94274293 10.8322945 15.21946833 12.45079921 15.70703125 16.19921875 C15.28125 18.92578125 15.28125 18.92578125 14.09375 20.86328125 C12.28125 21.92578125 12.28125 21.92578125 10.09375 21.8828125 C5.94135069 20.46984329 3.50012215 17.76460416 0.46875 14.67578125 C-0.12873047 14.10214844 -0.72621094 13.52851563 -1.34179688 12.9375 C-5.59801751 8.66668661 -5.59801751 8.66668661 -6.17578125 5.12109375 C-5.71875 2.92578125 -5.71875 2.92578125 -4.59375 1.05078125 C-2.71875 -0.07421875 -2.71875 -0.07421875 0 0 Z " fill="#FFFCF5" transform="translate(253.71875,181.07421875)"/>
<path d="M0 0 C1.9375 1.1875 1.9375 1.1875 3 3 C2.8936663 8.41335187 -0.62190166 11.2518827 -4.25 14.8125 C-4.82363281 15.40998047 -5.39726562 16.00746094 -5.98828125 16.62304688 C-10.24778401 20.86799552 -10.24778401 20.86799552 -13.8046875 21.4921875 C-16 21 -16 21 -17.875 19.3125 C-19.36521185 16.24928675 -19.08591846 15.22568184 -18 12 C-16.30836324 9.68140592 -14.35107589 7.70160319 -12.3125 5.6875 C-11.79494141 5.13771484 -11.27738281 4.58792969 -10.74414062 4.02148438 C-7.26219245 0.53086385 -5.14779544 -0.81125716 0 0 Z " fill="#FFFDF6" transform="translate(374,181)"/>
<path d="M0 0 C3.94248193 1.17838021 6.2090354 3.24310064 8.98828125 6.13671875 C9.47748047 6.60658203 9.96667969 7.07644531 10.47070312 7.56054688 C13.71254768 10.84723022 14.99890362 13.33074722 15.17578125 17.94921875 C14.05078125 19.82421875 14.05078125 19.82421875 12.17578125 20.94921875 C9.984375 21.40234375 9.984375 21.40234375 7.17578125 20.94921875 C4.62495883 19.17990206 2.52544619 17.04182382 0.36328125 14.82421875 C-0.23419922 14.25445312 -0.83167969 13.6846875 -1.44726562 13.09765625 C-4.28786498 10.24082489 -5.69442088 8.69621873 -6.3984375 4.64453125 C-5.56022844 0.71008057 -3.92604197 -0.07059273 0 0 Z " fill="#FFFDF8" transform="translate(360.82421875,288.05078125)"/>
<path d="M0 0 C3 0.25 3 0.25 5 2.25 C5.25878906 4.46484375 5.25878906 4.46484375 5.265625 7.1875 C5.26820313 8.16460937 5.27078125 9.14171875 5.2734375 10.1484375 C5.26570313 11.17195312 5.25796875 12.19546875 5.25 13.25 C5.25773437 14.27351562 5.26546875 15.29703125 5.2734375 16.3515625 C5.27085937 17.32867187 5.26828125 18.30578125 5.265625 19.3125 C5.26336914 20.21097656 5.26111328 21.10945313 5.25878906 22.03515625 C5 24.25 5 24.25 3 26.25 C0 26.5 0 26.5 -3 26.25 C-5.53054337 23.71945663 -5.25683229 22.81451118 -5.265625 19.3125 C-5.26820313 18.33539063 -5.27078125 17.35828125 -5.2734375 16.3515625 C-5.26570313 15.32804688 -5.25796875 14.30453125 -5.25 13.25 C-5.25773437 12.22648438 -5.26546875 11.20296875 -5.2734375 10.1484375 C-5.27085937 9.17132813 -5.26828125 8.19421875 -5.265625 7.1875 C-5.26336914 6.28902344 -5.26111328 5.39054688 -5.25878906 4.46484375 C-4.83027147 0.79737999 -3.55067437 0.29588953 0 0 Z " fill="#FFFEFC" transform="translate(312,154.75)"/>
</svg>
